# xmcd
#
# Track frame offsets:
#	150
#	31522
#	51237
#	78895
#	106302
#	133392
#	157620
#	168477
#	194692
#	223280
#	243387
#
# Disc length: 3524 seconds
#
# Revision: 5
# Processed by: cddbd v1.5.2PL0 Copyright (c) Steve Scherf et al.
# Submitted via: EasyCDDAExtractor 10.0.2.1
#
DISCID=920dc20b
DTITLE=Joe Louis Walker - Great Guitars
DYEAR=1997
DGENRE=Blues
TTITLE0=Low Down Dirty Blues
TTITLE1=First Degree
TTITLE2=Mile-Hi Club
TTITLE3=Fix Our Love
TTITLE4=Every Girl I See
TTITLE5=Cold And Evil Night
TTITLE6=Hop On It
TTITLE7=Nighttime
TTITLE8=Sugar
TTITLE9=In God's Hands
TTITLE10=High Blood Pressure
EXTD=
EXTT0=
EXTT1=
EXTT2=
EXTT3=
EXTT4=
EXTT5=
EXTT6=
EXTT7=
EXTT8=
EXTT9=
EXTT10=
PLAYORDER=
